HIERARCHY
ROOT Hips
{
	OFFSET 0.000000 0.000000 0.000000
	CHANNELS 6 Xposition Yposition Zposition Zrotation Yrotation Xrotation 
	JOINT LowerBack
	{
		OFFSET 0.000000 0.000000 0.000000
		CHANNELS 3 Zrotation Yrotation Xrotation
		JOINT Spine
		{
			OFFSET 0.028270 2.035590 -0.193380
			CHANNELS 3 Zrotation Yrotation Xrotation
			JOINT Spine1
			{
				OFFSET 0.056720 2.048850 -0.042750
				CHANNELS 3 Zrotation Yrotation Xrotation
				JOINT Neck
				{
					OFFSET 0.000000 0.000000 0.000000
					CHANNELS 3 Zrotation Yrotation Xrotation
					JOINT Neck1
					{
						OFFSET -0.054170 1.746240 0.172020
						CHANNELS 3 Zrotation Yrotation Xrotation
						JOINT Head
						{
							OFFSET 0.104070 1.761360 -0.123970
							CHANNELS 3 Zrotation Yrotation Xrotation
							End Site
							{
								OFFSET 0.000000 0.000000 0.000000
							}
						}
					}
				}
				JOINT LeftShoulder
				{
					OFFSET 0.000000 0.000000 0.000000
					CHANNELS 3 Zrotation Yrotation Xrotation
					JOINT LeftArm
					{
						OFFSET 3.362410 1.200890 -0.311210
						CHANNELS 3 Zrotation Yrotation Xrotation
						JOINT LeftForeArm
						{
							OFFSET 4.983000 -0.000000 -0.000000
							CHANNELS 3 Zrotation Yrotation Xrotation
							JOINT LeftHand
							{
								OFFSET 3.483560 -0.000000 -0.000000
								CHANNELS 3 Zrotation Yrotation Xrotation
								JOINT LeftFingerBase
								{
									OFFSET 0.000000 0.000000 0.000000
									CHANNELS 3 Zrotation Yrotation Xrotation
									JOINT LeftHandIndex1
									{
										OFFSET 0.715260 -0.000000 -0.000000
										CHANNELS 3 Zrotation Yrotation Xrotation
										End Site
										{
											OFFSET 0.000000 0.000000 0.000000
										}
									}
								}
								JOINT LThumb
								{
									OFFSET 0.000000 0.000000 0.000000
									CHANNELS 3 Zrotation Yrotation Xrotation
									End Site
									{
										OFFSET 0.000000 0.000000 0.000000
									}
								}
							}
						}
					}
				}
				JOINT RightShoulder
				{
					OFFSET 0.000000 0.000000 0.000000
					CHANNELS 3 Zrotation Yrotation Xrotation
					JOINT RightArm
					{
						OFFSET -3.136600 1.374050 -0.404650
						CHANNELS 3 Zrotation Yrotation Xrotation
						JOINT RightForeArm
						{
							OFFSET -5.241900 -0.000000 -0.000000
							CHANNELS 3 Zrotation Yrotation Xrotation
							JOINT RightHand
							{
								OFFSET -3.444170 -0.000000 -0.000000
								CHANNELS 3 Zrotation Yrotation Xrotation
								JOINT RightFingerBase
								{
									OFFSET 0.000000 0.000000 0.000000
									CHANNELS 3 Zrotation Yrotation Xrotation
									JOINT RightHandIndex1
									{
										OFFSET -0.622530 -0.000000 -0.000000
										CHANNELS 3 Zrotation Yrotation Xrotation
										End Site
										{
											OFFSET 0.000000 0.000000 0.000000
										}
									}
								}
								JOINT RThumb
								{
									OFFSET 0.000000 0.000000 0.000000
									CHANNELS 3 Zrotation Yrotation Xrotation
									End Site
									{
										OFFSET 0.000000 0.000000 0.000000
									}
								}
							}
						}
					}
				}
			}
		}
	}
}
}
MOTION
Frames: 7
Frame Time: 0.008333
4.886480 15.407501 -6.621799 -168.998174 44.776704 -146.956023 1.554395 -0.607990 15.038035 -0.638137 -0.390174 -0.315200 -6.711383 -0.273809 -2.051759 9.736514 -5.559371 -1.878604 -2.215557 -0.209255 1.102725 0.000000 0.000000 0.000000 2.437390 6.568302 1.084790 -71.211280 26.682946 12.919982 -179.975364 -85.226588 179.968266 8.936874 0.268733 0.005340 -0.114647 0.216626 0.000000 0.000000 0.000000 0.000000 0.000000 0.000000 0.000000 4.547995 -1.075939 -1.759419 67.262534 13.593013 6.201293 179.537319 73.649954 179.952133 -6.372763 3.115591 -0.204449 0.115809 -0.498726 -0.000000 0.000000 0.000000 0.000000 0.000000 0.000000 0.000000 
4.980381 15.326392 -6.760095 -168.968599 44.575642 -147.592874 1.322581 -0.573786 15.274996 -0.700214 -0.341837 -0.304928 -6.787616 -0.222895 -2.151358 9.721593 -5.309699 -1.742036 -2.275739 -0.214515 1.139054 0.000000 0.000000 0.000000 2.289926 6.421581 1.088440 -71.443082 25.865064 12.309218 -179.969078 -84.984045 179.967132 9.066442 0.242670 0.002970 -0.117871 0.221369 0.000000 0.000000 0.000000 0.000000 0.000000 0.000000 0.000000 4.655330 -0.806916 -1.774601 68.052361 12.601308 6.307956 179.559485 73.805770 179.954297 -6.036071 3.597963 -0.219653 0.101677 -0.506831 -0.000000 0.000000 0.000000 0.000000 0.000000 0.000000 0.000000 
5.073341 15.250590 -6.894846 -169.055910 44.324828 -148.286643 1.075886 -0.544333 15.505522 -0.764366 -0.299206 -0.291709 -6.860657 -0.177366 -2.236528 9.685742 -5.063930 -1.588048 -2.342389 -0.220241 1.178914 0.000000 0.000000 0.000000 2.097838 6.254315 1.086026 -71.585047 24.773544 11.772081 -179.964934 -84.920748 179.965782 9.252028 0.292715 0.006907 -0.123000 0.225004 -0.000000 0.000000 0.000000 0.000000 0.000000 0.000000 0.000000 4.793038 -0.574689 -1.791003 68.918147 11.584641 6.361426 179.591180 74.141262 179.956122 -5.731324 4.125195 -0.235460 0.087285 -0.514569 -0.000000 0.000000 0.000000 0.000000 0.000000 0.000000 0.000000 
5.165157 15.181662 -7.026037 -169.256942 44.013185 -149.024438 0.821490 -0.517797 15.724550 -0.828759 -0.260696 -0.275068 -6.928569 -0.135625 -2.303110 9.627929 -4.836096 -1.421024 -2.415404 -0.226354 1.221086 0.000000 0.000000 0.000000 1.857852 6.063802 1.074596 -71.640093 23.401870 11.306422 -179.963044 -85.043188 179.964196 9.490674 0.415927 0.017148 -0.129992 0.227593 -0.000000 0.000000 0.000000 0.000000 0.000000 0.000000 0.000000 4.966489 -0.396711 -1.805698 69.841270 10.555407 6.356803 179.631451 74.674977 179.957470 -5.478675 4.668517 -0.251370 0.073387 -0.521011 -0.000000 0.000000 0.000000 0.000000 0.000000 0.000000 0.000000 
5.255463 15.120658 -7.154086 -169.557015 43.633674 -149.788327 0.567556 -0.492565 15.928420 -0.891135 -0.224802 -0.253611 -6.988334 -0.096053 -2.344881 9.546926 -4.640351 -1.248776 -2.493881 -0.232688 1.263422 0.000000 0.000000 0.000000 1.573537 5.861568 1.051762 -71.623196 21.743651 10.910733 -179.963757 -85.357091 179.962354 9.775421 0.605203 0.033993 -0.138708 0.229327 -0.000000 0.000000 0.000000 0.000000 0.000000 0.000000 0.000000 5.177388 -0.289015 -1.816973 70.797818 9.530659 6.295507 179.679002 75.425229 179.958230 -5.302665 5.193364 -0.267681 0.060843 -0.525126 -0.000000 0.000000 0.000000 0.000000 0.000000 0.000000 0.000000 
5.344024 15.068204 -7.279349 -169.938630 43.186491 -150.561166 0.322846 -0.467124 16.113015 -0.949053 -0.189967 -0.226969 -7.036644 -0.057095 -2.358576 9.441816 -4.484800 -1.078190 -2.576384 -0.239072 1.304205 0.000000 0.000000 0.000000 1.246799 5.656309 1.016077 -71.557902 19.815036 10.571732 -179.967443 -85.850960 179.960238 10.096544 0.848923 0.056841 -0.148876 0.230481 -0.000000 0.000000 0.000000 0.000000 0.000000 0.000000 0.000000 5.423004 -0.258876 -1.822781 71.760076 8.522583 6.180759 179.731871 76.401962 179.958312 -5.229231 5.662981 -0.285193 0.050513 -0.525977 -0.000000 0.000000 0.000000 0.000000 0.000000 0.000000 0.000000 
5.430468 15.024345 -7.402484 -170.375632 42.676203 -151.322182 0.096249 -0.440860 16.275161 -0.999972 -0.155403 -0.194389 -7.069952 -0.017895 -2.340151 9.311660 -4.378583 -0.918501 -2.660742 -0.245274 1.341123 0.000000 0.000000 0.000000 0.884812 5.466119 0.966434 -71.477019 17.637770 10.277085 -179.974632 -86.507661 179.957837 10.441403 1.133633 0.085187 -0.160134 0.231402 -0.000000 0.000000 0.000000 0.000000 0.000000 0.000000 0.000000 5.696019 -0.312564 -1.822037 72.698503 7.548613 6.024983 179.787595 77.610648 179.957677 -5.284173 6.039955 -0.305303 0.043200 -0.522783 -0.000000 0.000000 0.000000 0.000000 0.000000 0.000000 0.000000 
